<?xml version="1.0" encoding="UTF-8"?>
<svg width="428px" height="90px" viewBox="0 0 428 90" version="1.1" xmlns="http://www.w3.org/2000/svg" xmlns:xlink="http://www.w3.org/1999/xlink">
    <!-- Generator: Sketch 54 (76480) - https://sketchapp.com -->
    <title>KubeSphere®.svg</title>
    <desc>Created with Sketch.</desc>
    <g id="KubeSphere商标®.ai" stroke="none" stroke-width="1" fill="none" fill-rule="evenodd">
        <g id="编组" transform="translate(98.999600, 22.647000)" fill="#443D4E">
            <path d="M208.533917,0.353 L204.86864,0.353 C204.067471,0.353 203.400296,1.0373925 203.400296,1.85732717 L203.400296,19.3623119 L191.601435,19.3623119 L191.601435,1.85732717 C191.601435,1.0373925 191.001256,0.353 190.134952,0.353 L186.467814,0.353 C185.667575,0.353 185.0004,1.0373925 185.0004,1.85732717 L185.0004,43.8477183 C185.0004,44.669562 185.667575,45.353 186.467814,45.353 L190.134952,45.353 C191.001256,45.353 191.601435,44.669562 191.601435,43.8477183 L191.601435,26.1327387 L203.400296,26.1327387 L203.400296,43.8477183 C203.400296,44.669562 204.067471,45.353 204.86864,45.353 L208.533917,45.353 C209.401152,45.353 210.0004,44.669562 210.0004,43.8477183 L210.0004,1.85732717 C210.0004,1.0373925 209.401152,0.353 208.533917,0.353" id="Fill-5"></path>
            <path d="M119.0004,40.0869004 C119.0004,39.2660112 118.323014,38.5816187 117.511472,38.5816187 L100.701519,38.5825732 L100.701519,26.2377361 L117.511472,26.2377361 C118.323014,26.2377361 118.999455,25.6230238 118.999455,24.733409 L118.999455,20.972591 C118.999455,20.1507473 118.322069,19.4673094 117.510528,19.4673094 L100.701519,19.4673094 L100.701519,7.12342678 L117.510528,7.12342678 C118.322069,7.12342678 118.999455,6.50775988 118.999455,5.61909961 L118.999455,1.85828169 C118.999455,1.03643798 118.322069,0.353 117.510528,0.353 L99.2154253,0.353 C99.2144806,0.353 99.2135358,0.353 99.2125911,0.353 L95.4902723,0.353 C94.6768417,0.353 94.0004,1.03643798 94.0004,1.85732717 L94.0004,43.8477183 C94.0004,44.6686075 94.6768417,45.353 95.4902723,45.353 L97.1029622,45.353 L97.1057964,45.353 L117.511472,45.353 C118.323014,45.353 119.0004,44.7373331 119.0004,43.8477183 L119.0004,40.0869004 Z" id="Fill-7"></path>
            <path d="M241.0004,40.0869004 C241.0004,39.2660112 240.323014,38.5816187 239.511472,38.5816187 L222.701519,38.5825732 L222.701519,26.2377361 L239.510528,26.2377361 C240.322069,26.2377361 240.999455,25.6230238 240.999455,24.733409 L240.999455,20.972591 C240.999455,20.1507473 240.322069,19.4673094 239.510528,19.4673094 L222.701519,19.4673094 L222.701519,7.12342678 L239.510528,7.12342678 C240.322069,7.12342678 240.999455,6.50775988 240.999455,5.61909961 L240.999455,1.85828169 C240.999455,1.03643798 240.322069,0.353 239.510528,0.353 L221.215425,0.353 C221.214481,0.353 221.213536,0.353 221.212591,0.353 L217.490272,0.353 C216.676842,0.353 216.0004,1.03643798 216.0004,1.85732717 L216.0004,43.8477183 C216.0004,44.6686075 216.676842,45.353 217.490272,45.353 L219.102962,45.353 L219.105796,45.353 L239.511472,45.353 C240.323014,45.353 241.0004,44.7373331 241.0004,43.8477183 L241.0004,40.0869004 Z" id="Fill-9"></path>
            <path d="M305.0004,40.0869004 C305.0004,39.2660112 304.323014,38.5816187 303.511472,38.5816187 L286.701519,38.5825732 L286.701519,26.2377361 L303.511472,26.2377361 C304.323014,26.2377361 304.999455,25.6230238 304.999455,24.733409 L304.999455,20.972591 C304.999455,20.1507473 304.322069,19.4673094 303.510528,19.4673094 L286.701519,19.4673094 L286.701519,7.12342678 L303.510528,7.12342678 C304.322069,7.12342678 304.999455,6.50775988 304.999455,5.61909961 L304.999455,1.85828169 C304.999455,1.03643798 304.322069,0.353 303.510528,0.353 L285.215425,0.353 C285.214481,0.353 285.213536,0.353 285.212591,0.353 L281.490272,0.353 C280.677786,0.353 280.0004,1.03643798 280.0004,1.85732717 L280.0004,43.8477183 C280.0004,44.6686075 280.677786,45.353 281.490272,45.353 L283.102962,45.353 L283.105796,45.353 L303.511472,45.353 C304.323014,45.353 305.0004,44.7373331 305.0004,43.8477183 L305.0004,40.0869004 Z" id="Fill-11"></path>
            <path d="M130.467167,12.1249562 L130.467167,14.7109427 C130.467167,16.6847874 132.334047,17.8408416 134.467355,18.7259005 L143.332917,22.5361704 C146.666565,24.034332 149.0004,26.6866258 149.0004,30.7698129 L149.0004,35.6006393 C149.0004,39.6155971 140.732654,46.353 136.332353,46.353 C133.333859,46.353 128.800814,44.1754283 125.268523,42.2015836 C124.467355,41.7941298 123.934499,40.8398806 124.401454,39.7520557 L125.534951,37.4380255 C126.000965,36.4856983 127.000777,36.2810104 127.867845,36.7576545 C130.733595,38.2548551 134.533256,40.0922412 136.332353,40.0922412 C138.332917,40.0922412 142.533633,36.6221568 142.533633,34.6483121 L142.533633,31.6548718 C142.533633,29.3408416 140.800438,28.0483288 138.400701,27.0960016 L130.133897,23.5567269 C126.933934,22.1959849 124.0004,19.4062715 124.0004,15.5960016 L124.0004,11.172629 C124.0004,6.74925637 132.733219,0.353 136.933934,0.353 C139.733784,0.353 144.266828,2.46234236 147.267205,4.09600159 C148.200174,4.57264569 148.466602,5.66143152 148.065548,6.47730016 L146.999835,8.79133041 C146.666565,9.60719905 145.59991,9.88011624 144.666941,9.47074045 C142.399948,8.3829156 138.600287,6.61375875 136.933934,6.61375875 C135.000212,6.61375875 130.467167,9.88011624 130.467167,12.1249562" id="Fill-13"></path>
            <path d="M260.452541,6.2347665 L253.794962,6.2347665 L253.794962,21.2809017 L260.520553,21.2809017 C263.334937,21.2809017 266.629241,16.28875 266.629241,13.6208602 C266.629241,11.0226504 263.196996,6.2347665 260.452541,6.2347665 M260.177616,27.1617137 L253.794962,27.1617137 L253.794962,43.8496274 C253.794962,44.7382876 253.1771,45.353 252.215344,45.353 L248.57906,45.353 C247.755245,45.353 247.0004,44.7382876 247.0004,43.8496274 L247.0004,3.49910555 C247.0004,1.9270073 248.853985,0.353 250.363675,0.353 L261.345327,0.353 C266.354316,0.353 273.0004,8.138084 273.0004,13.2667324 C273.0004,16.6867858 269.992516,21.8268885 266.767182,23.8113404 C269.374654,25.1782164 272.942925,28.8034921 272.942925,32.15482 L272.942925,43.8496274 C272.942925,44.669562 272.258008,45.353 271.433235,45.353 L267.65901,45.353 C266.835195,45.353 266.14932,44.669562 266.14932,43.8496274 L266.14932,33.1799769 C266.14932,30.786035 262.787004,27.1617137 260.177616,27.1617137" id="Fill-15"></path>
            <path d="M168.088005,6.2347665 L161.61177,6.2347665 L161.61177,21.2809017 L168.154174,21.2809017 C170.893224,21.2809017 173.715218,16.28875 173.715218,13.6208602 C173.715218,11.0226504 170.758089,6.2347665 168.088005,6.2347665 M167.821462,27.1617137 L161.61177,27.1617137 L161.61177,43.8496274 C161.61177,44.7382876 161.00972,45.353 160.074957,45.353 L156.536281,45.353 C155.73479,45.353 155.0004,44.7382876 155.0004,43.8496274 L155.0004,3.49910555 C155.0004,1.9270073 156.803755,0.353 158.272534,0.353 L168.956598,0.353 C173.82985,0.353 180.0004,8.38053267 180.0004,13.5091811 C180.0004,16.9292345 177.526961,21.5290775 174.669552,24.1893312 C173.265078,25.4970268 171.033951,27.1617137 167.821462,27.1617137" id="Fill-17"></path>
            <path d="M43.4842698,46.353 C39.1364838,46.353 31.0004,40.5896007 31.0004,35.6161579 L31.0004,2.23711395 C31.0004,1.40852873 31.7221122,0.722869628 32.5175626,0.722869628 L36.0026121,0.722869628 C36.8542878,0.722869628 37.5124009,1.40852873 37.5124009,2.23711395 L37.5124009,34.7219039 C37.5124009,37.1400594 41.4417229,40.0710106 43.4842698,40.0710106 C45.5268167,40.0710106 49.4828688,36.769224 49.4828688,34.3510686 L49.4828688,1.86724433 C49.4828688,1.03769338 50.0746175,0.353 50.8700678,0.353 L54.4832374,0.353 C55.2786878,0.353 56.0004,1.03769338 56.0004,1.86724433 L56.0004,35.2462883 C56.0004,40.0710106 47.8274472,46.353 43.4842698,46.353" id="Fill-19"></path>
            <path d="M75.1577157,39.4720633 L68.7630696,39.4720633 L68.7630696,24.4256089 L75.2254092,24.4256089 C78.0265826,24.4256089 81.3063773,29.1553673 81.3063773,31.8223592 C81.3063773,34.4215786 77.8902423,39.4720633 75.1577157,39.4720633 L75.1577157,39.4720633 Z M68.7630696,6.23393672 L75.1577157,6.23393672 C77.8902423,6.23393672 81.3063773,10.1513794 81.3063773,12.7505988 C81.3063773,15.4175907 78.0265826,19.7731684 75.2254092,19.7731684 L68.7630696,19.7731684 L68.7630696,6.23393672 Z M81.7516285,22.1003432 C84.8645731,20.0480767 88.0004,16.0609524 88.0004,12.7505988 C88.0004,7.62184161 81.0327432,0.353 76.0463113,0.353 L65.3469347,0.353 C63.8452845,0.353 62.0004,1.92608614 62.0004,3.49821774 L62.0004,19.9860314 L62.0004,42.2068277 L62.0004,43.8495955 C62.0004,44.7392291 62.7517018,45.353 63.5716505,45.353 L65.3469347,45.353 L67.1918191,45.353 L76.277041,45.353 C81.263473,45.353 88.0004,36.9520709 88.0004,31.8223592 C88.0004,28.5139147 84.8645731,24.1755187 81.7516285,22.1003432 L81.7516285,22.1003432 Z" id="Fill-21"></path>
            <path d="M9.9094313,23.1021303 L24.6262721,5.85868471 C25.1564897,5.23729068 25.1385642,4.31808569 24.4734336,3.73678161 L21.6591291,1.27888665 C21.0449446,0.741490582 20.091119,0.812125233 19.5609014,1.43351926 L6.69227461,16.5121083 L6.69227461,1.85828169 C6.69227461,1.0373925 6.08375083,0.353 5.20540101,0.353 L1.48727359,0.353 C0.67590856,0.353 0.0004,1.0373925 0.0004,1.85828169 L0.0004,43.8496274 C0.0004,44.669562 0.67590856,45.353 1.48727359,45.353 L5.20540101,45.353 C6.08375083,45.353 6.69227461,44.669562 6.69227461,43.8496274 L6.69227461,29.6921524 L19.5609014,44.7716959 C20.091119,45.3921354 21.0449446,45.4627701 21.6591291,44.9263285 L24.4734336,42.4684336 C25.1385642,41.886175 25.1564897,40.96697 24.6262721,40.3465305 L9.9094313,23.1021303 Z" id="Fill-23"></path>
        </g>
        <polygon id="Fill-1" fill="#00A971" points="64.9996 71.6465174 45.9996 60.647 45.9996 82.647"></polygon>
        <polygon id="Fill-2" fill="#00A971" points="64.9996 19.647 45.9996 8.647 45.9996 30.647"></polygon>
        <polygon id="Fill-3" fill="#00A971" points="19.6777987 45.6474704 36.9996 35.5556175 36.9996 3.647 0.9996 24.6199548 0.9996 66.6749859 36.9996 87.647 36.9996 55.7393232"></polygon>
        <polygon id="Fill-4" fill="#00A971" points="36.9996 45.647 73.9996 66.647 73.9996 24.647"></polygon>
    </g>
</svg>