<?xml version="1.0" standalone="no"?>
<!DOCTYPE svg PUBLIC "-//W3C//DTD SVG 1.1//EN" "http://www.w3.org/Graphics/SVG/1.1/DTD/svg11.dtd">
<svg xmlns="http://www.w3.org/2000/svg" viewBox="0 0 454.34 79.33" width="454.3399963378906" height="79.33000183105469"><defs><style>.cls-1{fill:#3e3d49;}.cls-2{fill:#00a971;}</style></defs><g id="图层_2" data-name="图层 2"><g id="图层_1-2" data-name="图层 1"><path class="cls-1" d="M172.92,79.16c-7.3,0-21.58-9.84-21.58-17.82V7.79a2.55,2.55,0,0,1,2.55-2.43h5.86a2.48,2.48,0,0,1,2.54,2.43V59.91c0,3.88,7.2,9.17,10.63,9.17s10.63-5.29,10.63-9.17V7.79a2.36,2.36,0,0,1,2.33-2.43H192a2.55,2.55,0,0,1,2.55,2.43V61.34C194.5,69.08,180.23,79.16,172.92,79.16Z"/><path class="cls-2" d="M400.73,70.65a2.5,2.5,0,0,0-2.47-2.48H372V47.84h26.27a2.42,2.42,0,0,0,2.47-2.48v-6.2a2.5,2.5,0,0,0-2.48-2.48H372V16.35h26.26a2.43,2.43,0,0,0,2.48-2.48V7.67a2.5,2.5,0,0,0-2.48-2.48H363.32a2.5,2.5,0,0,0-2.48,2.48V76.85a2.5,2.5,0,0,0,2.48,2.48h34.94a2.42,2.42,0,0,0,2.47-2.48Z"/><path class="cls-1" d="M295.56,70.65a2.5,2.5,0,0,0-2.48-2.48H266.82V47.84h26.26a2.42,2.42,0,0,0,2.48-2.48v-6.2a2.5,2.5,0,0,0-2.48-2.48H266.82V16.35h26.26a2.44,2.44,0,0,0,2.48-2.48V7.67a2.51,2.51,0,0,0-2.48-2.48H258.15a2.5,2.5,0,0,0-2.48,2.48V76.85a2.5,2.5,0,0,0,2.48,2.48h34.94a2.42,2.42,0,0,0,2.47-2.48Z"/><path class="cls-1" d="M236.58,41c5.11-3.36,10.25-9.9,10.25-15.32,0-8.4-11.43-20.31-19.61-20.31H209.68c-2.47,0-5.49,2.58-5.49,5.15V76.66a2.5,2.5,0,0,0,2.57,2.46H227.6c8.18,0,19.23-13.76,19.23-22.16C246.83,51.53,241.69,44.43,236.58,41Zm-21.3-26h10.49c4.48,0,10.08,6.41,10.08,10.67s-5.38,11.51-10,11.51h-10.6Zm10.49,54.45H215.28V44.84h10.6c4.59,0,10,7.75,10,12.12S230.25,69.49,225.77,69.49Z"/><path class="cls-2" d="M323.88,42.67l24.53-28.41a2.42,2.42,0,0,0-.25-3.49l-4.69-4A2.5,2.5,0,0,0,340,7L318.52,31.81V7.67A2.43,2.43,0,0,0,316,5.19h-6.2a2.51,2.51,0,0,0-2.48,2.48V76.85a2.51,2.51,0,0,0,2.48,2.48H316a2.43,2.43,0,0,0,2.48-2.48V53.53L340,78.37a2.51,2.51,0,0,0,3.5.26l4.69-4a2.43,2.43,0,0,0,.25-3.5Z"/><path class="cls-1" d="M116,42.67l24.53-28.41a2.42,2.42,0,0,0-.26-3.49l-4.69-4a2.49,2.49,0,0,0-3.49.25L110.66,31.81V7.67a2.44,2.44,0,0,0-2.48-2.48H102A2.51,2.51,0,0,0,99.5,7.67V76.85A2.51,2.51,0,0,0,102,79.33h6.2a2.44,2.44,0,0,0,2.48-2.48V53.53l21.45,24.84a2.5,2.5,0,0,0,3.49.26l4.69-4a2.44,2.44,0,0,0,.26-3.5Z"/><rect class="cls-2" x="427.63" y="39.99" width="11.16" height="38.95" rx="2.48"/><path class="cls-2" d="M451.82,5.59h-6.28A2.53,2.53,0,0,0,443,8.1V23.27c0,3.91-5.36,13.25-9.66,13.62-4.3-.37-9.65-9.71-9.65-13.62V8.1a2.54,2.54,0,0,0-2.52-2.51h-6.28A2.53,2.53,0,0,0,412.4,8.1V25c0,5.6,5.65,15.06,9.79,17.7,2.36,1.52,5.78,3.88,10.9,4h.56c5.12-.17,8.54-2.53,10.91-4,4.13-2.64,9.78-12.1,9.78-17.7V8.1A2.53,2.53,0,0,0,451.82,5.59Z"/><path class="cls-2" d="M76.63,22.12V66.36L54.54,79.12,44.91,49.23a13.63,13.63,0,1,0-13.48.22L21.91,79,0,66.36V22.12L38.31,0Z"/></g></g></svg>